<svg role="img" viewBox="0 0 24 24" xmlns="http://www.w3.org/2000/svg" id="Codementor--Streamline-Simple-Icons" height="24" width="24">
  <desc>
    Codementor Streamline Icon: https://streamlinehq.com
  </desc>
  <title>Codementor</title>
  <path d="M8.487 14.887c0.39 0 0.706 0.314 0.706 0.7a0.703 0.703 0 0 1 -0.706 0.7H5.632a0.703 0.703 0 0 1 -0.707 -0.7c0 -0.386 0.317 -0.7 0.707 -0.7zm0.69 -2.593c0.39 0 0.706 0.315 0.706 0.7a0.703 0.703 0 0 1 -0.707 0.7H5.648a0.703 0.703 0 0 1 -0.706 -0.7c0 -0.386 0.316 -0.7 0.706 -0.7zm3.864 -3.46a2.109 2.109 0 0 1 2.118 -2.099 2.109 2.109 0 0 1 2.118 2.1 2.115 2.115 0 0 1 -2.118 2.103 2.116 2.116 0 0 1 -2.118 -2.104Zm6.259 6.559c0.1 0.619 -0.378 1.18 -1.005 1.178h-6.272a1.016 1.016 0 0 1 -1.005 -1.178c0.315 -1.942 1.391 -3.509 2.796 -4.13a2.768 2.768 0 0 0 2.69 0c1.405 0.621 2.482 2.19 2.796 4.13zm-8.712 -4.29c-8.38 0 -0.147 -0.002 -4.941 -0.002a0.703 0.703 0 0 1 -0.707 -0.7c0 -0.386 0.317 -0.7 0.707 -0.7l4.941 0.001c0.39 0 0.707 0.314 0.706 0.701a0.702 0.702 0 0 1 -0.706 0.7zm-4.94 -2.594a0.702 0.702 0 0 1 -0.707 -0.7c0 -0.386 0.317 -0.7 0.707 -0.7h4.94c0.389 0 0.705 0.313 0.705 0.7a0.703 0.703 0 0 1 -0.706 0.699zm7.809 10.117a0.658 0.658 0 0 0 0.66 -0.654h7.06v-12.6H2.824v12.599h7.059c0 0.361 0.295 0.654 0.66 0.654zM24 17.972v0.957c0 0.605 -0.496 1.096 -1.106 1.096H1.106c-0.61 0 -1.106 -0.49 -1.106 -1.096v-0.957h1.413V5.357c0 -0.763 0.623 -1.382 1.394 -1.382h18.387c0.77 0 1.394 0.619 1.394 1.382v12.615Z" fill="#000000" stroke-width="1"></path>
</svg>