<?xml version="1.0" encoding="UTF-8"?><svg id="Layer_2" xmlns="http://www.w3.org/2000/svg" viewBox="0 0 524.84 142.31" width="340" height="92"><defs><style>.cls-1{fill:#f58220;}.cls-2{fill:#fbaf3c;}.cls-3{fill:#cd2033;}.cls-4{fill:#0d9dda;}.cls-5{fill:#63a5b9;}.cls-6{fill:#576eb2;}.cls-7{fill:#26569a;}</style></defs><g id="Isolation_Mode"><g><path class="cls-7" d="M217.55,111.02l-.69,2.22c-.78-.17-1.53-.24-2.26-.22-2.28,.02-3.42,1.27-3.42,3.75v1.53h4.66v2.37h-4.66v16.17h-3.1v-16.17h-3.24v-1.97l3.24-.4v-1.6c0-1.97,.52-3.48,1.57-4.54,1.04-1.06,2.6-1.6,4.66-1.62,1.19,0,2.27,.16,3.24,.47Z"/><path class="cls-7" d="M219.22,122.46c0-1.36-.09-2.74-.26-4.15h2.95c.12,.83,.21,1.81,.25,2.95h.07c1.07-2.31,3.01-3.46,5.83-3.46,.19,0,.55,.04,1.06,.11l-.18,2.66c-.24-.05-.62-.07-1.13-.07-1.77,0-3.13,.6-4.08,1.78-.95,1.19-1.42,2.73-1.42,4.63v9.94h-3.1v-14.39Z"/><path class="cls-7" d="M248.87,127.52c0,1.92-.37,3.62-1.11,5.12-.74,1.49-1.81,2.65-3.2,3.48-1.4,.83-3.07,1.24-5.01,1.24s-3.58-.42-4.99-1.26c-1.41-.84-2.48-2-3.21-3.48-.73-1.48-1.09-3.18-1.09-5.1,0-2.96,.81-5.32,2.44-7.08,1.63-1.76,3.91-2.64,6.85-2.64,1.97,0,3.65,.41,5.04,1.22,1.4,.81,2.46,1.95,3.19,3.41,.73,1.46,1.09,3.16,1.09,5.1Zm-15.41,0c0,2.21,.5,3.99,1.51,5.34,1.01,1.35,2.53,2.02,4.57,2.02s3.61-.67,4.63-2.02c1.02-1.35,1.53-3.13,1.53-5.34s-.51-3.97-1.53-5.28c-1.02-1.31-2.56-1.97-4.63-1.97s-3.59,.66-4.59,1.97c-1,1.31-1.49,3.07-1.49,5.28Z"/><path class="cls-7" d="M252.88,122.46c0-1.36-.09-2.74-.26-4.15h2.95c.12,.66,.21,1.53,.25,2.62h.07c.58-.92,1.4-1.68,2.46-2.26,1.06-.58,2.28-.87,3.66-.87,1.58,0,2.86,.33,3.86,1,1,.67,1.72,1.58,2.18,2.75h.07c.63-1.17,1.49-2.08,2.59-2.75,1.09-.67,2.4-1,3.93-1s2.81,.33,3.82,1c1.02,.67,1.77,1.54,2.26,2.62,.48,1.08,.73,2.26,.73,3.55v11.87h-3.1v-11.44c0-1.43-.35-2.63-1.04-3.61-.69-.97-1.8-1.46-3.33-1.46-1.12,0-2.08,.29-2.88,.87s-1.41,1.36-1.82,2.33c-.41,.97-.62,2.02-.62,3.13v10.16h-3.1v-11.51c0-1.41-.35-2.59-1.06-3.55-.7-.96-1.81-1.44-3.31-1.44-1.6,0-2.88,.56-3.82,1.69s-1.42,2.52-1.42,4.17v10.64h-3.1v-14.39Z"/><path class="cls-7" d="M342.6,134.44l1.64-2.04c1.04,.83,2.12,1.42,3.24,1.78,1.12,.36,2.38,.55,3.79,.55,1.75,0,3.16-.41,4.24-1.22,1.08-.81,1.62-2,1.62-3.55,0-1.09-.25-1.98-.76-2.66-.51-.68-1.22-1.23-2.11-1.64-.9-.41-2.09-.81-3.57-1.2-2.4-.63-4.2-1.49-5.39-2.57-1.19-1.08-1.79-2.59-1.79-4.54,0-2.16,.81-3.85,2.42-5.06,1.61-1.21,3.67-1.82,6.17-1.82,1.58,0,3,.21,4.28,.62,1.27,.41,2.46,1.02,3.55,1.82l-1.46,2.11c-1.02-.66-2.03-1.14-3.04-1.46-1.01-.32-2.12-.47-3.33-.47-1.63,0-2.94,.35-3.93,1.04-1,.69-1.49,1.69-1.49,3s.46,2.3,1.37,2.97c.91,.67,2.4,1.27,4.46,1.8,2.6,.68,4.56,1.6,5.9,2.77,1.33,1.17,2,2.89,2,5.17,0,1.65-.41,3.05-1.22,4.19-.81,1.14-1.91,2-3.3,2.57-1.38,.57-2.94,.86-4.66,.86-3.35,0-6.23-1.01-8.63-3.02Z"/><path class="cls-7" d="M363.18,131.78c0-2.4,.87-4.07,2.6-5.01,1.74-.93,4.35-1.4,7.85-1.4,.85,0,1.49,.01,1.93,.04v-1.06c0-1.38-.38-2.42-1.13-3.1-.75-.68-1.91-1.02-3.46-1.02-1.97,0-3.82,.52-5.57,1.57l-1.09-2.08c2.09-1.29,4.37-1.93,6.85-1.93,2.6,0,4.5,.61,5.7,1.82,1.2,1.21,1.8,3.06,1.8,5.54v7.58c0,1.34,.08,2.71,.25,4.12h-2.84c-.17-1.07-.25-1.91-.25-2.51h-.11c-.68,1-1.54,1.75-2.57,2.26-1.03,.51-2.36,.76-3.99,.76-1.8,0-3.24-.48-4.34-1.44-1.09-.96-1.64-2.34-1.64-4.13Zm12.38-1.78v-2.4l-1.64-.04c-1.82,0-3.27,.12-4.35,.36-1.08,.24-1.88,.66-2.4,1.24-.52,.58-.78,1.4-.78,2.44s.32,1.89,.95,2.46c.63,.57,1.51,.86,2.62,.86s2.17-.25,3.02-.75c.85-.5,1.49-1.12,1.93-1.88,.44-.75,.66-1.52,.66-2.29Z"/><path class="cls-7" d="M387.58,111.06v25.79h-3.1v-25.79h3.1Z"/><path class="cls-7" d="M409.22,128.69h-13.77c.12,1.89,.69,3.4,1.71,4.52,1.02,1.12,2.48,1.68,4.37,1.68,1.12,0,2.12-.15,3.01-.46,.89-.3,1.78-.76,2.68-1.37l1.38,2c-1.04,.75-2.16,1.32-3.33,1.71-1.18,.39-2.48,.58-3.92,.58-2.84,0-5.06-.9-6.65-2.7-1.59-1.8-2.39-4.19-2.39-7.18,0-1.92,.34-3.61,1.02-5.06,.68-1.46,1.67-2.59,2.97-3.41,1.3-.81,2.86-1.22,4.68-1.22,2.7,0,4.75,.87,6.17,2.62,1.42,1.75,2.13,4.07,2.13,6.96,0,.58-.02,1.02-.07,1.31Zm-2.95-2.4c-.05-1.85-.52-3.33-1.42-4.44-.9-1.12-2.2-1.68-3.9-1.68s-3.06,.58-4.01,1.73c-.95,1.15-1.46,2.62-1.53,4.39h10.86Z"/><path class="cls-7" d="M425.21,119.76l-1.38,1.93c-1.43-1-2.99-1.49-4.66-1.49-1.17,0-2.08,.22-2.73,.67-.66,.45-.98,1.09-.98,1.91,0,.61,.13,1.11,.4,1.49,.27,.39,.72,.72,1.35,.98,.63,.27,1.55,.55,2.77,.84,1.89,.46,3.3,1.14,4.21,2.02,.91,.89,1.37,2.05,1.37,3.48,0,1.82-.68,3.24-2.04,4.24-1.36,1.01-3.04,1.51-5.03,1.51-2.67,0-4.91-.72-6.7-2.15l1.42-1.93c.82,.56,1.64,.97,2.44,1.24,.8,.27,1.71,.4,2.73,.4,1.24,0,2.22-.27,2.93-.8,.72-.53,1.07-1.3,1.07-2.29,0-.66-.13-1.18-.4-1.58-.27-.4-.71-.73-1.33-1-.62-.27-1.55-.56-2.79-.87-1.92-.49-3.31-1.14-4.19-1.97-.87-.83-1.31-1.97-1.31-3.42,0-1.58,.61-2.84,1.84-3.77,1.23-.93,2.85-1.4,4.86-1.4,2.38,0,4.43,.66,6.16,1.97Z"/><path class="cls-7" d="M440.72,111.02l-.69,2.22c-.78-.17-1.53-.24-2.26-.22-2.28,.02-3.42,1.27-3.42,3.75v1.53h4.66v2.37h-4.66v16.17h-3.1v-16.17h-3.24v-1.97l3.24-.4v-1.6c0-1.97,.52-3.48,1.57-4.54,1.04-1.06,2.6-1.6,4.66-1.62,1.19,0,2.27,.16,3.24,.47Z"/><path class="cls-7" d="M459.7,127.52c0,1.92-.37,3.62-1.11,5.12-.74,1.49-1.81,2.65-3.2,3.48-1.4,.83-3.07,1.24-5.01,1.24s-3.58-.42-4.99-1.26c-1.41-.84-2.48-2-3.21-3.48-.73-1.48-1.09-3.18-1.09-5.1,0-2.96,.81-5.32,2.44-7.08,1.63-1.76,3.91-2.64,6.85-2.64,1.97,0,3.65,.41,5.04,1.22,1.4,.81,2.46,1.95,3.19,3.41,.73,1.46,1.09,3.16,1.09,5.1Zm-15.41,0c0,2.21,.5,3.99,1.51,5.34,1.01,1.35,2.53,2.02,4.57,2.02s3.61-.67,4.63-2.02c1.02-1.35,1.53-3.13,1.53-5.34s-.51-3.97-1.53-5.28c-1.02-1.31-2.56-1.97-4.63-1.97s-3.59,.66-4.59,1.97c-1,1.31-1.49,3.07-1.49,5.28Z"/><path class="cls-7" d="M463.71,122.46c0-1.36-.09-2.74-.26-4.15h2.95c.12,.83,.21,1.81,.25,2.95h.07c1.07-2.31,3.01-3.46,5.83-3.46,.19,0,.55,.04,1.06,.11l-.18,2.66c-.24-.05-.62-.07-1.13-.07-1.77,0-3.13,.6-4.08,1.78-.95,1.19-1.42,2.73-1.42,4.63v9.94h-3.1v-14.39Z"/><path class="cls-7" d="M483.92,117.8c1.17,0,2.28,.18,3.33,.53,1.06,.35,2,.84,2.82,1.48l-1.24,2.15c-1.41-1.04-3.05-1.57-4.92-1.57-1.99,0-3.5,.65-4.52,1.95-1.02,1.3-1.53,3.04-1.53,5.23s.51,3.87,1.53,5.19c1.02,1.32,2.51,1.99,4.48,1.99,1.68,0,3.34-.52,4.99-1.57l1.13,2.19c-1.85,1.34-3.96,2-6.34,2-2.09,0-3.8-.47-5.14-1.4-1.34-.93-2.3-2.14-2.9-3.62-.6-1.48-.89-3.07-.89-4.77,0-2.96,.81-5.33,2.44-7.1,1.63-1.77,3.87-2.66,6.74-2.66Z"/><path class="cls-7" d="M509.17,128.69h-13.77c.12,1.89,.69,3.4,1.71,4.52,1.02,1.12,2.48,1.68,4.37,1.68,1.12,0,2.12-.15,3.01-.46,.89-.3,1.78-.76,2.68-1.37l1.38,2c-1.04,.75-2.16,1.32-3.33,1.71-1.18,.39-2.48,.58-3.92,.58-2.84,0-5.06-.9-6.65-2.7-1.59-1.8-2.39-4.19-2.39-7.18,0-1.92,.34-3.61,1.02-5.06,.68-1.46,1.67-2.59,2.97-3.41,1.3-.81,2.86-1.22,4.68-1.22,2.7,0,4.75,.87,6.17,2.62,1.42,1.75,2.13,4.07,2.13,6.96,0,.58-.02,1.02-.07,1.31Zm-2.95-2.4c-.05-1.85-.52-3.33-1.42-4.44-.9-1.12-2.2-1.68-3.9-1.68s-3.06,.58-4.01,1.73c-.95,1.15-1.46,2.62-1.53,4.39h10.86Z"/><path class="cls-4" d="M310.14,113.69c.74-.79,1.63-1.41,2.62-1.82,.98-.43,2.04-.66,3.11-.66,1.43,0,2.83,.4,4.05,1.14,1.23,.74,2.24,1.8,2.92,3.06,1.26-.56,2.61-.85,3.99-.86,2.62,0,5.13,1.05,6.98,2.93,1.85,1.87,2.89,4.42,2.89,7.07s-1.04,5.19-2.89,7.07c-1.85,1.87-4.36,2.93-6.98,2.93-.64,0-1.29-.07-1.91-.22-.88,1.61-2.35,2.82-4.09,3.37-1.75,.54-3.64,.4-5.3-.39-.63,1.53-1.72,2.83-3.11,3.7-1.38,.91-3,1.37-4.64,1.32-1.63-.02-3.22-.54-4.54-1.51-1.33-.96-2.34-2.31-2.9-3.86-.52,.11-1.05,.17-1.58,.16-1.33-.02-2.64-.4-3.79-1.08-1.15-.69-2.1-1.67-2.76-2.84-.66-1.17-1.01-2.5-1.02-3.85,0-1.35,.34-2.68,1-3.85,.67-1.17,1.63-2.14,2.79-2.81-.85-1.99-.95-4.23-.27-6.3,.68-2.05,2.07-3.79,3.91-4.89,1.86-1.11,4.05-1.48,6.16-1.05,2.13,.37,4.04,1.53,5.35,3.26h0Z"/><g><polygon class="cls-2" points="41.48 25.42 27.49 25.42 27.49 11.44 23.12 11.44 23.12 25.42 9.14 25.42 9.14 29.79 23.12 29.79 23.12 43.78 27.49 43.78 27.49 29.79 41.48 29.79 41.48 25.42"/><polygon class="cls-5" points="98.52 25.42 84.54 25.42 84.54 11.44 80.17 11.44 80.17 25.42 66.18 25.42 66.18 29.79 80.17 29.79 80.17 43.78 84.54 43.78 84.54 29.79 98.52 29.79 98.52 25.42"/><polygon class="cls-5" points="21.54 52.73 12.3 52.73 12.3 43.49 9.24 43.49 9.24 52.73 0 52.73 0 55.78 9.24 55.78 9.24 65.02 12.3 65.02 12.3 55.78 21.54 55.78 21.54 52.73"/><polygon class="cls-6" points="108.97 52.27 99.54 52.27 99.54 42.83 95.56 42.83 95.56 52.27 86.12 52.27 86.12 56.24 95.56 56.24 95.56 65.68 99.54 65.68 99.54 56.24 108.97 56.24 108.97 52.27"/><polygon class="cls-7" points="98.53 78.26 84.6 78.26 84.6 64.34 80.1 64.34 80.1 78.26 66.18 78.26 66.18 82.76 80.1 82.76 80.1 96.68 84.6 96.68 84.6 82.76 98.53 82.76 98.53 78.26"/><polygon class="cls-3" points="41.48 78.26 27.56 78.26 27.56 64.34 23.06 64.34 23.06 78.26 9.14 78.26 9.14 82.76 23.06 82.76 23.06 96.68 27.56 96.68 27.56 82.76 41.48 82.76 41.48 78.26"/><polygon class="cls-5" points="64.6 9.24 55.36 9.24 55.36 0 52.3 0 52.3 9.24 43.06 9.24 43.06 12.3 52.3 12.3 52.3 21.54 55.36 21.54 55.36 12.3 64.6 12.3 64.6 9.24"/><polygon class="cls-6" points="65.25 95.56 55.82 95.56 55.82 86.13 51.84 86.13 51.84 95.56 42.41 95.56 42.41 99.54 51.84 99.54 51.84 108.97 55.82 108.97 55.82 99.54 65.25 99.54 65.25 95.56"/><polygon class="cls-1" points="73.26 51.27 56.81 51.27 56.81 34.83 50.85 34.83 50.85 51.27 34.4 51.27 34.4 57.24 50.85 57.24 50.85 73.68 56.81 73.68 56.81 57.24 73.26 57.24 73.26 51.27"/></g><path class="cls-7" d="M285.16,44.36c-1.89,0-4.83,.39-8.15,1.69V28.61h-7.05l.2,47.56c4.21,1.42,8.22,2.21,12.3,2.21,11.78,0,18.46-6.28,18.46-17.04s-6.36-16.98-15.77-16.98Zm-1.99,27.54c-1.96,0-3.99-.4-6.16-1.19v-18.16c1.79-.82,4.23-1.71,6.8-1.71,5.92,0,9.71,3.97,9.71,10.57s-3.78,10.49-10.35,10.49Z"/><rect class="cls-7" x="327.91" y="21.93" width="6.97" height="62.42"/><path class="cls-7" d="M379.44,44.45c-9.54,0-15.79,6.86-16.12,16.52-.3,8.95,4.93,16.5,15.67,17.54,5.47,.53,9.81-.37,13.97-2.39v-6.65c-3.16,1.98-8.99,2.92-13.13,2.6-4.97-.38-8.6-3.25-9.17-9.3h24.09c.5-10.92-5.3-18.33-15.31-18.33Zm-8.35,13.2c1.38-4.36,5.36-7,9.46-6.73,4.08,.26,6.37,2.47,6.55,6.73h-16.01Z"/><path class="cls-7" d="M487.28,65.72v-20.65h-7.05v21.52c0,7.19,5.58,11.58,14.45,11.58s14.45-4.39,14.45-11.58v-21.52h-7.05v20.65c0,5.05-2.98,7.3-7.4,7.3s-7.41-2.25-7.41-7.3Z"/><path class="cls-7" d="M229.02,44.21v2.38c-2.35-1.53-4.97-2.23-8.15-2.23-9.4,0-15.76,6.61-15.76,16.98s6.68,17.08,18.46,17.04c4.47-.01,9.34-.93,12.3-2.21l.2-31.96h-7.04Zm-.13,26.92c-2.48,.63-4.43,.75-6.03,.77-6.58,.09-10.35-3.77-10.35-10.49s3.79-10.57,9.71-10.57c2.37,0,4.55,.73,6.8,2.28l-.13,18.02Z"/><path class="cls-7" d="M445.87,44.21v2.38c-2.35-1.53-4.98-2.23-8.15-2.23-9.41,0-15.76,6.61-15.76,16.98s6.68,17.08,18.46,17.04c4.47-.01,9.34-.93,12.3-2.21l.2-31.96h-7.04Zm-.13,26.92c-2.48,.63-4.64,.77-6.03,.77-6.58,.01-10.35-3.77-10.35-10.49s3.79-10.57,9.71-10.57c2.37,0,4.55,.73,6.8,2.28l-.13,18.02Z"/><polygon class="cls-7" points="153.84 50.66 134.99 50.66 134.99 57.16 153.84 57.16 153.84 78.63 160.81 78.63 160.81 57.16 179.65 57.16 179.65 50.66 160.81 50.66 160.81 30.86 153.84 30.86 153.84 50.66"/><path class="cls-7" d="M520.74,44.79h-.02c-2.29,0-4.14,1.86-4.14,4.18s1.86,4.2,4.14,4.2,4.12-1.84,4.12-4.2-1.82-4.18-4.1-4.18Zm0,7.73c-1.86,0-3.36-1.56-3.36-3.55s1.51-3.53,3.34-3.53h.02c1.86,0,3.34,1.58,3.34,3.55s-1.49,3.55-3.34,3.53Z"/><path class="cls-7" d="M522.26,50.25c-.09-.69-.37-1.06-.78-1.13v-.04c.5-.15,.91-.52,.91-1.13,0-.44-.15-.76-.43-.96-.28-.2-.74-.35-1.45-.35-.56,0-.93,.06-1.32,.11v4.66h.74v-2.01h.52c.6,0,.89,.22,1.01,.82,.09,.61,.2,1.04,.32,1.19h.78c-.07-.15-.18-.43-.3-1.15Zm-1.78-1.43h-.54v-1.58c.13-.02,.3-.04,.54-.04,.84,0,1.13,.41,1.13,.82,0,.58-.52,.8-1.13,.8Z"/></g></g></svg>
